<?xml version="1.0"?>
<svg xmlns="http://www.w3.org/2000/svg" xmlns:xlink="http://www.w3.org/1999/xlink" xmlns:svgjs="http://svgjs.com/svgjs" version="1.1" width="512" height="512" x="0" y="0" viewBox="0 0 512 511" style="enable-background:new 0 0 512 512" xml:space="preserve" class=""><g><path xmlns="http://www.w3.org/2000/svg" d="m488.453125.5h-464.90625c-12.984375 0-23.546875 10.5625-23.546875 23.546875v352.6875c0 12.984375 10.5625 23.546875 23.546875 23.546875h160.8125v73.140625h-16.53125c-4.152344 0-7.515625 3.367187-7.515625 7.515625 0 4.152344 3.363281 7.515625 7.515625 7.515625h176.34375c4.152344 0 7.515625-3.363281 7.515625-7.515625 0-4.148438-3.363281-7.515625-7.515625-7.515625h-16.53125v-73.140625h160.8125c12.984375 0 23.546875-10.5625 23.546875-23.546875v-352.6875c0-12.984375-10.5625-23.546875-23.546875-23.546875zm-464.90625 15.03125h464.90625c4.695313 0 8.515625 3.820312 8.515625 8.515625v24.546875h-49.59375c-4.152344 0-7.515625 3.363281-7.515625 7.515625 0 4.148437 3.363281 7.515625 7.515625 7.515625h49.59375v273.53125h-481.9375v-273.53125h397.609375c4.148437 0 7.511719-3.367188 7.511719-7.515625 0-4.152344-3.363282-7.515625-7.511719-7.515625h-397.609375v-24.546875c0-4.695313 3.820312-8.515625 8.515625-8.515625zm289.0625 457.890625h-113.21875v-73.140625h113.21875zm175.84375-88.171875h-464.90625c-4.695313 0-8.515625-3.820312-8.515625-8.515625v-24.546875h481.9375v24.546875c0 4.695313-3.820312 8.515625-8.515625 8.515625zm0 0" fill="#a5a5a5" data-original="#000000" style="" class=""/><path xmlns="http://www.w3.org/2000/svg" d="m247.984375 39.578125h16.03125c4.152344 0 7.515625-3.367187 7.515625-7.515625 0-4.152344-3.363281-7.515625-7.515625-7.515625h-16.03125c-4.152344 0-7.515625 3.363281-7.515625 7.515625 0 4.148438 3.363281 7.515625 7.515625 7.515625zm0 0" fill="#a5a5a5" data-original="#000000" style="" class=""/><path xmlns="http://www.w3.org/2000/svg" d="m272.03125 361.203125h-32.0625c-4.152344 0-7.515625 3.367187-7.515625 7.515625 0 4.152344 3.363281 7.515625 7.515625 7.515625h32.0625c4.152344 0 7.515625-3.363281 7.515625-7.515625 0-4.148438-3.363281-7.515625-7.515625-7.515625zm0 0" fill="#a5a5a5" data-original="#000000" style="" class=""/><path xmlns="http://www.w3.org/2000/svg" d="m357 186.601562-96.1875-80.15625c-2.789062-2.320312-6.835938-2.320312-9.625 0l-96.1875 80.15625c-2.429688 2.023438-3.332031 5.355469-2.253906 8.332032 1.078125 2.972656 3.902344 4.957031 7.066406 4.957031h16.53125v88.671875c0 4.148438 3.363281 7.515625 7.515625 7.515625h144.28125c4.152344 0 7.515625-3.367187 7.515625-7.515625v-88.671875h16.53125c3.164062 0 5.988281-1.984375 7.066406-4.957031 1.078125-2.976563.175782-6.304688-2.253906-8.332032zm-28.859375-1.742187c-4.152344 0-7.515625 3.367187-7.515625 7.515625v88.671875h-129.25v-88.671875c0-4.148438-3.363281-7.515625-7.515625-7.515625h-3.289063l75.429688-62.859375 75.429688 62.859375zm0 0" fill="#a5a5a5" data-original="#000000" style="" class=""/><path xmlns="http://www.w3.org/2000/svg" d="m283.808594 212.339844c-17.152344-9.917969-38.464844-9.917969-55.617188-.003906-3.59375 2.078124-4.820312 6.675781-2.746094 10.269531 2.078126 3.59375 6.675782 4.820312 10.265626 2.746093 12.515624-7.234374 28.0625-7.234374 40.578124 0 3.546876 2.050782 8.214844.796876 10.265626-2.746093 2.074218-3.59375.847656-8.191407-2.746094-10.265625zm0 0" fill="#a5a5a5" data-original="#000000" style="" class=""/><path xmlns="http://www.w3.org/2000/svg" d="m208.582031 186.746094c-3.488281 2.246094-4.492187 6.894531-2.246093 10.386718 2.246093 3.488282 6.898437 4.492188 10.386718 2.246094 23.859375-15.367187 54.695313-15.367187 78.554688 0 3.441406 2.21875 8.171875 1.195313 10.386718-2.246094 2.246094-3.492187 1.242188-8.140624-2.25-10.386718-28.804687-18.554688-66.027343-18.554688-94.832031 0zm0 0" fill="#a5a5a5" data-original="#000000" style="" class=""/><path xmlns="http://www.w3.org/2000/svg" d="m256 236.960938c-6.289062 0-12.203125 2.449218-16.652344 6.898437-2.894531 2.894531-2.894531 7.730469.003906 10.625 2.894532 2.898437 7.730469 2.894531 10.625 0 1.609376-1.605469 3.746094-2.492187 6.023438-2.492187 2.273438 0 4.410156.882812 6.019531 2.492187 3.058594 3.058594 8.21875 2.851563 11.027344-.429687 2.519531-2.941407 2.339844-7.460938-.398437-10.195313-4.445313-4.449219-10.359376-6.898437-16.648438-6.898437zm0 0" fill="#a5a5a5" data-original="#000000" style="" class=""/></g></svg>
