<?xml version="1.0"?>
<svg xmlns="http://www.w3.org/2000/svg" xmlns:xlink="http://www.w3.org/1999/xlink" xmlns:svgjs="http://svgjs.com/svgjs" version="1.1" width="512" height="512" x="0" y="0" viewBox="0 0 64 64" style="enable-background:new 0 0 512 512" xml:space="preserve" class=""><g><path xmlns="http://www.w3.org/2000/svg" d="m23 6a17 17 0 1 0 17 17 17.019 17.019 0 0 0 -17-17zm0 32a15 15 0 1 1 15-15 15.017 15.017 0 0 1 -15 15z" fill="#a5a5a5" data-original="#000000" style=""/><path xmlns="http://www.w3.org/2000/svg" d="m33.625 19.219-10-8a1 1 0 0 0 -1.25 0l-10 8a1 1 0 0 0 .625 1.781h1v11a1 1 0 0 0 1 1h16a1 1 0 0 0 1-1v-11h1a1 1 0 0 0 .625-1.781zm-8.625 11.781h-4v-6h4zm5-11v11h-3v-7a1 1 0 0 0 -1-1h-6a1 1 0 0 0 -1 1v7h-3v-11a1 1 0 0 0 -.4-.8l7.4-5.919 7.4 5.919a1 1 0 0 0 -.4.8z" fill="#a5a5a5" data-original="#000000" style=""/><path xmlns="http://www.w3.org/2000/svg" d="m19.447 50.105-8-4a1 1 0 0 0 -.894 0l-8 4a1 1 0 0 0 .447 1.895h1v9a1 1 0 0 0 1 1h12a1 1 0 0 0 1-1v-9h1a1 1 0 0 0 .447-1.9zm-7.447 9.895h-2v-4h2zm4-9v9h-2v-5a1 1 0 0 0 -1-1h-4a1 1 0 0 0 -1 1v5h-2v-9a1 1 0 0 0 -.063-.351l5.063-2.531 5.063 2.531a1 1 0 0 0 -.063.351z" fill="#a5a5a5" data-original="#000000" style=""/><path xmlns="http://www.w3.org/2000/svg" d="m61.447 6.105-8-4a1 1 0 0 0 -.894 0l-8 4a1 1 0 0 0 .447 1.895h1v9a1 1 0 0 0 1 1h12a1 1 0 0 0 1-1v-9h1a1 1 0 0 0 .447-1.895zm-7.447 9.895h-2v-4h2zm4-9v9h-2v-5a1 1 0 0 0 -1-1h-4a1 1 0 0 0 -1 1v5h-2v-9a1 1 0 0 0 -.063-.351l5.063-2.531 5.063 2.531a1 1 0 0 0 -.063.351z" fill="#a5a5a5" data-original="#000000" style=""/><path xmlns="http://www.w3.org/2000/svg" d="m43.465 36.394a1 1 0 0 0 -1.414 0l-.707.706-1.544-1.548a21.081 21.081 0 1 0 -4.248 4.248l1.548 1.544-.706.706a1 1 0 0 0 0 1.414l16.97 16.971a5 5 0 0 0 7.071-7.071zm-39.465-13.394a19 19 0 1 1 19 19 19.021 19.021 0 0 1 -19-19zm34.517 14.1 1.409 1.41-1.416 1.416-1.41-1.41q.742-.673 1.417-1.416zm20.5 21.921a3.073 3.073 0 0 1 -4.243 0l-16.259-16.264 4.243-4.242 16.263 16.263a3 3 0 0 1 0 4.243z" fill="#a5a5a5" data-original="#000000" style=""/><path xmlns="http://www.w3.org/2000/svg" d="m55.535 55.536h2v2h-2z" transform="matrix(.707 -.707 .707 .707 -23.418 56.535)" fill="#a5a5a5" data-original="#000000" style=""/><path xmlns="http://www.w3.org/2000/svg" d="m50.586 47.586h2v7.999h-2z" transform="matrix(.707 -.707 .707 .707 -21.367 51.586)" fill="#a5a5a5" data-original="#000000" style=""/><path xmlns="http://www.w3.org/2000/svg" d="m20 55h4v2h-4z" fill="#a5a5a5" data-original="#000000" style=""/><path xmlns="http://www.w3.org/2000/svg" d="m26 55h4v2h-4z" fill="#a5a5a5" data-original="#000000" style=""/><path xmlns="http://www.w3.org/2000/svg" d="m32 55h4v2h-4z" fill="#a5a5a5" data-original="#000000" style=""/><path xmlns="http://www.w3.org/2000/svg" d="m38 55h4v2h-4z" fill="#a5a5a5" data-original="#000000" style=""/><path xmlns="http://www.w3.org/2000/svg" d="m52 20h2v4h-2z" fill="#a5a5a5" data-original="#000000" style=""/><path xmlns="http://www.w3.org/2000/svg" d="m52 26h2v4h-2z" fill="#a5a5a5" data-original="#000000" style=""/><path xmlns="http://www.w3.org/2000/svg" d="m52 32h2v4h-2z" fill="#a5a5a5" data-original="#000000" style=""/><path xmlns="http://www.w3.org/2000/svg" d="m52 38h2v4h-2z" fill="#a5a5a5" data-original="#000000" style=""/></g></svg>
